# xmcd CD database file
#
# Track frame offsets:
#	180
#	13989
#	27904
#	40187
#	52972
#	66113
#	81310
#	88039
#	102049
#	114849
#	130387
#	144300
#	158252
#	170449
#	183065
#	196080
#	211213
#	217943
#	231877
#	244865
#
# Disc length: 3469 seconds
#
# Revision: 0
# Processed by: cddbd v1.5.2PL0 Copyright (c) Steve Scherf et al.
# Submitted via: CDex 1.51
#
DISCID=fd0d8b14
DTITLE=Pocket Songs - You sing the hits of The Andrews Sisters
DYEAR=1998
DGENRE=Jazz
TTITLE0=Don´t Sit Under The Apple Tree (With Anyone Else But Me)
TTITLE1=Rum And Coca-Cola
TTITLE2=The Woodpecker Song
TTITLE3=I´ll Be With You In Apple Blossom Time
TTITLE4=Beer Barrel Polka
TTITLE5=Lullaby Of Broadway
TTITLE6=Alexander´s Ragtime Band
TTITLE7=Bei Mir Bist Du Schön
TTITLE8=Beat Me Daddy Eight To The Bar
TTITLE9=Back In Your Own Back Yards
TTITLE10=Don´t Sit Under The Apple Tree (With Anyone Else But Me)
TTITLE11=Rum And Coca-Cola
TTITLE12=The Woodpecker Song
TTITLE13=I´ll Be With You In Apple Blossom Time
TTITLE14=Beer Barrel Polka
TTITLE15=Lullaby Of Broadway
TTITLE16=Alexander´s Ragtime Band
TTITLE17=Bei Mir Bist Du Schön
TTITLE18=Beat Me Daddy Eight To The Bar
TTITLE19=Back In Your Own Back Yards
EXTD=YEAR: 1998
EXTT0=
EXTT1=
EXTT2=
EXTT3=
EXTT4=
EXTT5=
EXTT6=
EXTT7=
EXTT8=
EXTT9=
EXTT10=
EXTT11=
EXTT12=
EXTT13=
EXTT14=
EXTT15=
EXTT16=
EXTT17=
EXTT18=
EXTT19=
PLAYORDER=
